# xmcd
#
# Track frame offsets: 
#        150
#        19473
#        39811
#        53272
#        79336
#        102981
#        121209
#        135753
#        161663
#        179667
#        203016
#        221863
#
# Disc length: 3222 seconds
#
# Revision: 2
# Processed by: cddbd v1.5.2PL0 Copyright (c) Steve Scherf et al.
# Submitted via: ExactAudioCopy v0.95b4
#
DISCID=9c0c940c
DTITLE=Little Milton - Guitar Man
DYEAR=1900
DGENRE=Blues
TTITLE0=Guitar Man
TTITLE1=Take Time Out To Hear Some Blues
TTITLE2=Still Some Meat Left On This Bone
TTITLE3=Blues Tune Up
TTITLE4=I Could Have Saved Our Love
TTITLE5=I Wish I Could Be Your Lover
TTITLE6=You Were On The Right Street
TTITLE7=The Juke Joint Is Calling Me
TTITLE8=Mr. and Mrs. Untrue
TTITLE9=Just One Moment
TTITLE10=Whenever You Come Around
TTITLE11=My Way
EXTD=
EXTT0=
EXTT1=
EXTT2=
EXTT3=
EXTT4=
EXTT5=
EXTT6=
EXTT7=
EXTT8=
EXTT9=
EXTT10=
EXTT11=
PLAYORDER=
